Coordinates
version=1
nRows=14
nColumns=32
inDegrees=yes

Units are S.I. units (second, meters, Newtons, ...)
If the header above contains a line with 'inDegrees', this indicates whether rotational values are in degrees (yes) or radians (no).

endheader
time	pelvis_tilt	pelvis_list	pelvis_rotation	pelvis_tx	pelvis_ty	pelvis_tz	hip_flexion_r	hip_adduction_r	hip_rotation_r	knee_angle_r	knee_adduction_r	med_cond_adduction_r	lat_cond_adduction_r	patella_r_constrained_knee_angle	ankle_angle_r	subtalar_angle_r	mtp_angle_r	hip_flexion_l	hip_adduction_l	hip_rotation_l	knee_angle_l	knee_adduction_l	med_cond_adduction_l	lat_cond_adduction_l	patella_l_constrained_knee_angle	ankle_angle_l	subtalar_angle_l	mtp_angle_l	lumbar_extension	lumbar_bending	lumbar_rotation
      0.44500000	      7.11419961	    -20.56540630	      2.60464652	     -0.11387924	      0.93817547	      0.27522958	     -8.12850056	     18.49827791	    -17.31226179	     -1.80513729	      9.25881301	     -0.00000000	     -0.00000000	     -0.03150559	     -7.89837764	      7.46885439	     -0.00000000	     18.05868803	    -45.69630060	    -28.62450597	    -72.29486428	     -9.17047993	     -0.00000000	      0.00000000	     -1.26178341	     -4.53461555	     19.48536283	      0.00000000	    -20.68204925	     23.84455501	     -2.30237042
      0.45000000	      7.03217256	    -20.51378516	      2.56956556	     -0.10757550	      0.93838938	      0.27496502	     -8.88004072	     18.49215868	    -16.76030548	     -1.02081329	      9.34524091	      0.00000000	      0.00000000	     -0.01781655	     -8.09101152	      7.04352212	     -0.00000000	     19.14026756	    -45.36320962	    -28.20434530	    -71.82662261	     -8.92476557	     -0.00000000	     -0.00000000	     -1.25361106	     -3.83505276	     19.52047082	     -0.00000000	    -20.58008589	     23.65682090	     -2.98283081
      0.45500000	      7.14790374	    -20.17105418	      2.42375246	     -0.10129995	      0.93920759	      0.27481451	     -9.78312979	     18.12038877	    -16.37485573	     -0.49204727	      9.41597131	     -0.00000000	     -0.00000000	     -0.00858784	     -8.05086203	      7.10005335	     -0.00000000	     19.51589975	    -44.72672406	    -28.25992983	    -71.08218936	     -8.59565750	      0.00000000	     -0.00000000	     -1.24061824	     -3.23885611	     19.54820223	     -0.00000000	    -20.79638091	     23.22907224	     -2.98782897
      0.46000000	      7.28430395	    -19.81861256	      2.18467361	     -0.09507029	      0.94006148	      0.27495690	    -10.69994647	     17.73994152	    -15.90243093	      0.01393187	      9.46725245	      0.00000000	      0.00000000	      0.00024316	     -8.11120909	      7.07754742	     -0.00000000	     19.69401895	    -44.14381432	    -28.32203952	    -70.24424780	     -8.06118563	      0.00000000	      0.00000000	     -1.22599340	     -2.63876606	     19.57137819	      0.00000000	    -21.07504214	     22.73699325	     -2.87783162
      0.46500000	      7.36349021	    -19.55684669	      2.02226405	     -0.08885067	      0.94064561	      0.27499676	    -11.50891524	     17.45444514	    -15.55416266	      0.46680537	      9.50945908	      0.00000000	      0.00000000	      0.00814729	     -8.11191690	      7.10472142	     -0.00000000	     20.05353427	    -43.64824252	    -28.00598471	    -69.41413955	     -7.29339023	      0.00000000	      0.00000000	     -1.21150528	     -2.05880291	     19.58924826	     -0.00000000	    -21.25694254	     22.34110357	     -2.95354008
      0.47000000	      7.37163483	    -19.37915036	      1.71621571	     -0.08257916	      0.94106631	      0.27545413	    -12.29150080	     17.26663897	    -14.90150472	      0.99411153	      9.53293881	      0.00000000	     -0.00000000	      0.01735052	     -8.14113188	      6.91198117	     -0.00000000	     20.33543872	    -43.37134919	    -27.61414559	    -68.53797622	     -6.21463739	      0.00000000	      0.00000000	     -1.19621335	     -1.57525561	     19.59999225	     -0.00000000	    -21.39147732	     21.96551347	     -2.88732663
      0.47500000	      7.30670855	    -19.34647817	      1.62109177	     -0.07637696	      0.94107503	      0.27553327	    -12.83037958	     17.22392065	    -14.81680258	      1.23394381	      9.54393892	      0.00000000	      0.00000000	      0.02153638	     -8.04097285	      7.16924702	      0.00000000	     21.03933788	    -43.16182040	    -26.68430621	    -67.73814594	     -5.04747429	      0.00000000	      0.00000000	     -1.18225368	     -1.06069498	     19.60624385	     -0.00000000	    -21.36674654	     21.91923987	     -2.78365184
      0.48000000	      7.25861764	    -19.26097327	      1.32512049	     -0.07015067	      0.94121469	      0.27608277	    -13.49055345	     17.12168863	    -14.27604460	      1.64525149	      9.55892428	      0.00000000	      0.00000000	      0.02871506	     -8.04518314	      7.04734134	      0.00000000	     21.38101085	    -43.01718954	    -25.98312855	    -66.79171040	     -3.68252678	     -0.00000000	     -0.00000000	     -1.16573526	     -0.54199672	     19.61124435	      0.00000000	    -21.43371671	     21.66986033	     -2.61662223
      0.48500000	      7.15068741	    -19.31379792	      1.16419264	     -0.06394696	      0.94101323	      0.27639612	    -14.02878892	     17.17467840	    -13.92381328	      1.97357538	      9.56565716	      0.00000000	      0.00000000	      0.03444539	     -7.96869089	      7.04469984	      0.00000000	     22.02768906	    -42.98590424	    -24.99991267	    -65.89276939	     -2.31982479	      0.00000000	      0.00000000	     -1.15004578	     -0.14180340	     19.61433357	      0.00000000	    -21.39213598	     21.62037844	     -2.60891434
      0.49000000	      7.13483065	    -19.23013332	      0.82596908	     -0.05774462	      0.94114064	      0.27705616	    -14.69228666	     17.04589163	    -13.37093886	      2.29716582	      9.57059456	     -0.00000000	     -0.00000000	      0.04009311	     -7.90001667	      7.01582471	      0.00000000	     22.18549692	    -42.88916639	    -24.50871042	    -64.79834712	     -0.98606732	     -0.00000000	     -0.00000000	     -1.13094451	      0.24247522	     19.61673740	     -0.00000000	    -21.52343092	     21.41745820	     -2.10588753
      0.49500000	      7.33958490	    -18.86111778	      0.44638277	     -0.05159990	      0.94189311	      0.27770864	    -15.53326778	     16.56107533	    -12.99238186	      2.47487368	      9.58080372	      0.00000000	      0.00000000	      0.04319469	     -7.72801568	      7.31743373	      0.00000000	     21.74861784	    -42.44107327	    -24.66965589	    -63.42443501	      0.05450769	     -0.00000000	     -0.00000000	     -1.10696522	      0.51384098	     19.61844578	      0.00000000	    -21.95452636	     20.86754625	     -1.48924610
      0.50000000	      7.18401135	    -18.96947866	     -0.00635952	     -0.04534303	      0.94158163	      0.27875090	    -16.15595953	     16.64316536	    -11.94144319	      3.02518891	      9.57644481	      0.00000000	      0.00000000	      0.05279951	     -7.81531874	      6.69054421	     -0.00000000	     22.01118291	    -42.67834548	    -24.11355967	    -62.30259429	      1.53870693	      0.00000000	      0.00000000	     -1.08738540	      0.85239982	     19.62048436	     -0.00000000	    -21.94543580	     20.64841357	     -1.46872119
      0.50500000	      7.05572625	    -19.02760684	     -0.37033827	     -0.03914713	      0.94129255	      0.27954540	    -16.68461149	     16.64566221	    -11.29381419	      3.32103473	      9.57027203	     -0.00000000	     -0.00000000	      0.05796299	     -7.76913837	      6.52759861	     -0.00000000	     22.29740380	    -42.77394087	    -23.71145167	    -61.11138130	      2.74867205	     -0.00000000	      0.00000000	     -1.06659481	      1.12678015	     19.62068599	     -0.00000000	    -21.95475234	     20.55325656	     -1.06095392
      0.51000000	      7.10345057	    -18.92457486	     -0.72661159	     -0.03304100	      0.94138202	      0.28025985	    -17.36708942	     16.44606101	    -10.77129701	      3.55367117	      9.57164310	      0.00000000	      0.00000000	      0.06202326	     -7.61373629	      6.55701663	      0.00000000	     22.18279391	    -42.65170015	    -23.66772941	    -59.72573530	      3.80137663	      0.00000000	     -0.00000000	     -1.04241073	      1.32811007	     19.62048049	      0.00000000	    -22.19482179	     20.19918348	     -0.80870239
